<svg width="49" height="47" viewBox="0 0 49 47" fill="none" xmlns="http://www.w3.org/2000/svg">
<path d="M0 6.66434L24.2788 0.104897L48.5577 6.66434V23.9219V40.3986L24.2788 46.958L0 40.3986V22.3601V6.66434Z" fill="#BD2D22"/>
<path d="M18.2695 18.457C18.2695 18.7305 18.1615 18.9609 17.9453 19.1484C17.7396 19.3255 17.4987 19.4141 17.2227 19.4141C16.944 19.4141 16.7005 19.3255 16.4922 19.1484C16.276 18.9609 16.168 18.7305 16.168 18.457C16.168 18.3659 16.1784 18.2878 16.1992 18.2227C15.6419 18.2279 15.1354 18.5169 14.6797 19.0898C14.2526 19.6315 14.0391 20.1888 14.0391 20.7617C14.0391 21.8372 14.7409 22.375 16.1445 22.375H18.1094C18.0286 22.7917 17.7122 23 17.1602 23H15.7188C14.8203 23 14.0911 22.8698 13.5312 22.6094C12.763 22.25 12.3828 21.6654 12.3906 20.8555C12.3958 20.4023 12.5352 19.9492 12.8086 19.4961C13.181 18.8763 13.7096 18.3867 14.3945 18.0273C15.0586 17.6784 15.7643 17.5039 16.5117 17.5039H17.293C17.5456 17.5039 17.7708 17.6003 17.9688 17.793C18.1693 17.9857 18.2695 18.207 18.2695 18.457ZM24.7344 20.3438C24.6302 20.7604 24.3177 20.9688 23.7969 20.9688H21.3516C21.4375 21.026 21.5078 21.1315 21.5625 21.2852C21.6172 21.4362 21.6393 21.5677 21.6289 21.6797C21.5924 22.1146 21.401 22.4557 21.0547 22.7031C20.724 22.9401 20.2943 23.0599 19.7656 23.0625C19.151 23.0677 18.6784 22.9466 18.3477 22.6992C18.0534 22.4805 17.9062 22.1927 17.9062 21.8359C17.9062 21.7656 17.9128 21.6953 17.9258 21.625C17.9935 21.2318 18.1888 20.9232 18.5117 20.6992C18.8555 20.4622 19.3138 20.3438 19.8867 20.3438H24.7344ZM20.4766 20.9688H19.582L19.2305 21.9688C19.2122 22.0208 19.2031 22.0703 19.2031 22.1172C19.2031 22.3411 19.4115 22.4531 19.8281 22.4531C19.8776 22.4531 19.9206 22.4518 19.957 22.4492L20.4766 20.9688ZM25.7578 22.375C25.6927 22.6042 25.543 22.7734 25.3086 22.8828C25.1445 22.9609 24.9688 23 24.7812 23H23.2773C22.8919 23 22.6992 22.8685 22.6992 22.6055C22.6992 22.5378 22.7135 22.4609 22.7422 22.375L24.1914 18.2891H25.5742L24.1172 22.375H25.7578ZM32.375 20.3438C32.2708 20.7604 31.9583 20.9688 31.4375 20.9688H28.9922C29.0781 21.026 29.1484 21.1315 29.2031 21.2852C29.2578 21.4362 29.2799 21.5677 29.2695 21.6797C29.2331 22.1146 29.0417 22.4557 28.6953 22.7031C28.3646 22.9401 27.9349 23.0599 27.4062 23.0625C26.7917 23.0677 26.319 22.9466 25.9883 22.6992C25.694 22.4805 25.5469 22.1927 25.5469 21.8359C25.5469 21.7656 25.5534 21.6953 25.5664 21.625C25.6341 21.2318 25.8294 20.9232 26.1523 20.6992C26.4961 20.4622 26.9544 20.3438 27.5273 20.3438H32.375ZM28.1172 20.9688H27.2227L26.8711 21.9688C26.8529 22.0208 26.8438 22.0703 26.8438 22.1172C26.8438 22.3411 27.0521 22.4531 27.4688 22.4531C27.5182 22.4531 27.5612 22.4518 27.5977 22.4492L28.1172 20.9688ZM34.9492 22.375C34.9492 22.5573 34.849 22.7109 34.6484 22.8359C34.4714 22.9453 34.2865 23 34.0938 23H32.5977C32.2018 23 32.0039 22.8359 32.0039 22.5078C32.0039 22.4245 32.0208 22.3346 32.0547 22.2383L32.4961 20.9688H31.6641L31.2305 22.0898C31.1576 22.2799 31 22.375 30.7578 22.375H30.3438L30.8555 20.9688C30.694 20.9323 30.5625 20.8516 30.4609 20.7266C30.362 20.599 30.3125 20.4531 30.3125 20.2891C30.3125 19.9896 30.4518 19.7578 30.7305 19.5938C30.9622 19.4583 31.2383 19.3906 31.5586 19.3906H32.1914L31.8633 20.3438H34.0234L33.3125 22.375H34.9492Z" fill="#E2E2E2"/>
</svg>
