<svg width="49" height="47" viewBox="0 0 49 47" fill="none" xmlns="http://www.w3.org/2000/svg">
<path d="M0.442261 6.66434L24.7211 0.104897L49 6.66434V23.9219V40.3986L24.7211 46.958L0.442261 40.3986V22.3601V6.66434Z" fill="#BD2D22"/>
<path d="M19.7773 22.375C19.668 22.7917 19.306 23 18.6914 23H17.2891C16.8516 23 16.6328 22.8737 16.6328 22.6211C16.6328 22.5326 16.6602 22.4167 16.7148 22.2734L17.3633 20.5859L15.4258 22.7109C15.2174 22.9427 14.9896 23.0586 14.7422 23.0586C14.6953 23.0586 14.6458 23.0547 14.5938 23.0469C14.2969 23.013 14.1484 22.8646 14.1484 22.6016C14.1484 22.5 14.1719 22.3906 14.2188 22.2734L15.1797 19.793L12.7695 22.7031C12.6081 22.901 12.3711 23 12.0586 23H11.2656L12.8438 18.4883H10.6758L11.2656 17.5039H13.875C14.2344 17.5039 14.4141 17.6354 14.4141 17.8984C14.4141 18 14.3893 18.1224 14.3398 18.2656L13.5 20.6875L15.1797 18.7852C15.3932 18.5404 15.5573 18.3815 15.6719 18.3086C15.862 18.1888 16.1081 18.1289 16.4102 18.1289C16.4961 18.1289 16.5859 18.1589 16.6797 18.2188C16.8229 18.3125 16.8945 18.4518 16.8945 18.6367C16.8945 18.7513 16.8659 18.8802 16.8086 19.0234L16.0508 20.9922L17.5547 19.4805C17.7682 19.2669 17.9102 19.138 17.9805 19.0938C18.1029 19.0234 18.2786 18.9896 18.5078 18.9922C18.599 18.9922 18.6953 19.026 18.7969 19.0938C18.9531 19.1953 19.0312 19.3438 19.0312 19.5391C19.0312 19.651 19.0052 19.7747 18.9531 19.9102L18.0195 22.375H19.7773ZM24.8164 22.375C24.6914 22.7917 24.3724 23 23.8594 23H22.3789C21.957 23 21.7461 22.8646 21.7461 22.5938C21.4622 22.9167 21.1133 23.0781 20.6992 23.0781C20.3945 23.0781 20.1471 22.9844 19.957 22.7969C19.7669 22.6094 19.6719 22.3646 19.6719 22.0625C19.6719 21.5182 19.8802 21.0885 20.2969 20.7734C20.6745 20.487 21.1419 20.3438 21.6992 20.3438H23.9297L23.1953 22.375H24.8164ZM22.2969 20.9688H21.4336L21.1602 21.8789C21.1445 21.9362 21.1367 21.9883 21.1367 22.0352C21.1367 22.2617 21.3581 22.375 21.8008 22.375L22.2969 20.9688ZM29.3828 22.375C29.3828 22.5573 29.2826 22.7109 29.082 22.8359C28.9049 22.9453 28.7201 23 28.5273 23H27.0312C26.6354 23 26.4375 22.8359 26.4375 22.5078C26.4375 22.4245 26.4544 22.3346 26.4883 22.2383L26.9297 20.9688H26.0977L25.6641 22.0898C25.5911 22.2799 25.4336 22.375 25.1914 22.375H24.7773L25.2891 20.9688C25.1276 20.9323 24.9961 20.8516 24.8945 20.7266C24.7956 20.599 24.7461 20.4531 24.7461 20.2891C24.7461 19.9896 24.8854 19.7578 25.1641 19.5938C25.3958 19.4583 25.6719 19.3906 25.9922 19.3906H26.625L26.2969 20.3438H28.457L27.7461 22.375H29.3828ZM34.2734 22.375C34.2161 22.5781 34.0964 22.7357 33.9141 22.8477C33.7474 22.9492 33.5534 23 33.332 23H30.9805C30.5326 23 30.1562 22.9245 29.8516 22.7734C29.4661 22.5833 29.2734 22.2969 29.2734 21.9141C29.2734 21.8724 29.276 21.8294 29.2812 21.7852C29.3333 21.319 29.5755 20.9544 30.0078 20.6914C30.388 20.4596 30.8372 20.3438 31.3555 20.3438H32.3398C32.5612 20.3438 32.75 20.4141 32.9062 20.5547C33.0625 20.6953 33.1406 20.8672 33.1406 21.0703C33.1406 21.276 33.0612 21.4505 32.9023 21.5938C32.7461 21.737 32.5586 21.8086 32.3398 21.8086C32.1185 21.8086 31.9297 21.737 31.7734 21.5938C31.6198 21.4479 31.5443 21.2708 31.5469 21.0625C31.5469 21.0625 31.5469 21.0312 31.5469 20.9688H31.0742L30.7695 21.832C30.7435 21.9049 30.7305 21.9714 30.7305 22.0312C30.7305 22.2604 30.9115 22.375 31.2734 22.375H34.2734ZM39.2695 22.375C39.1445 22.7917 38.8255 23 38.3125 23H36.832C36.4102 23 36.1992 22.8646 36.1992 22.5938C35.9154 22.9167 35.5664 23.0781 35.1523 23.0781C34.8477 23.0781 34.6003 22.9844 34.4102 22.7969C34.2201 22.6094 34.125 22.3646 34.125 22.0625C34.125 21.5182 34.3333 21.0885 34.75 20.7734C35.1276 20.487 35.5951 20.3438 36.1523 20.3438H38.3828L37.6484 22.375H39.2695ZM36.75 20.9688H35.8867L35.6133 21.8789C35.5977 21.9362 35.5898 21.9883 35.5898 22.0352C35.5898 22.2617 35.8112 22.375 36.2539 22.375L36.75 20.9688Z" fill="#E2E2E2"/>
</svg>
