<svg width="49" height="47" viewBox="0 0 49 47" fill="none" xmlns="http://www.w3.org/2000/svg">
<path d="M0.221191 6.55944L24.5 0L48.7789 6.55944V23.817V40.2937L24.5 46.8531L0.221191 40.2937V22.2552V6.55944Z" fill="#6471E6"/>
<path d="M16.082 18.3203C16.082 18.5911 15.974 18.8164 15.7578 18.9961C15.5547 19.1706 15.3151 19.2578 15.0391 19.2578C14.7604 19.2578 14.5234 19.1719 14.3281 19L13.0312 22.6016C12.9089 22.9479 12.6966 23.1211 12.3945 23.1211C11.9883 23.1211 11.7474 22.9453 11.6719 22.5938L11.0234 19.5195L10.1445 22.1211C10.0534 22.3919 9.87891 22.6081 9.62109 22.7695C9.37891 22.9232 9.11068 23 8.81641 23H6.96094C7.07552 22.7135 7.17318 22.5117 7.25391 22.3945C7.40755 22.168 7.58724 22.0547 7.79297 22.0547C7.91797 22.0547 8.10677 22.082 8.35938 22.1367C8.61458 22.1888 8.80729 22.2148 8.9375 22.2148C9.21094 22.2148 9.40495 22.0469 9.51953 21.7109L10.7227 18.2227C10.8242 17.9206 10.9115 17.7266 10.9844 17.6406C11.1068 17.4844 11.2995 17.4062 11.5625 17.4062C11.9557 17.4062 12.2083 17.6836 12.3203 18.2383L12.8555 20.9102L13.6641 18.6406C13.9635 17.8021 14.4193 17.3828 15.0312 17.3828C15.3073 17.3828 15.5482 17.4688 15.7539 17.6406C15.9727 17.8229 16.082 18.0495 16.082 18.3203ZM21.2422 20.3438C21.138 20.7604 20.8255 20.9688 20.3047 20.9688H17.8594C17.9453 21.026 18.0156 21.1315 18.0703 21.2852C18.125 21.4362 18.1471 21.5677 18.1367 21.6797C18.1003 22.1146 17.9089 22.4557 17.5625 22.7031C17.2318 22.9401 16.8021 23.0599 16.2734 23.0625C15.6589 23.0677 15.1862 22.9466 14.8555 22.6992C14.5612 22.4805 14.4141 22.1927 14.4141 21.8359C14.4141 21.7656 14.4206 21.6953 14.4336 21.625C14.5013 21.2318 14.6966 20.9232 15.0195 20.6992C15.3633 20.4622 15.8216 20.3438 16.3945 20.3438H21.2422ZM16.9844 20.9688H16.0898L15.7383 21.9688C15.7201 22.0208 15.7109 22.0703 15.7109 22.1172C15.7109 22.3411 15.9193 22.4531 16.3359 22.4531C16.3854 22.4531 16.4284 22.4518 16.4648 22.4492L16.9844 20.9688ZM26.8984 22.375C26.8229 22.7917 26.5273 23 26.0117 23H24.4258C24.3008 23 24.1849 22.9492 24.0781 22.8477C23.974 22.7435 23.9219 22.6263 23.9219 22.4961C23.9219 22.4544 23.9271 22.4141 23.9375 22.375C23.9948 22.1823 24.0807 21.9023 24.1953 21.5352L22.875 22.6406C22.5417 22.9167 22.2565 23.0547 22.0195 23.0547C21.6654 23.0547 21.4883 22.9219 21.4883 22.6562C21.4883 22.5703 21.5078 22.4766 21.5469 22.375L21.8594 21.5352L20.3047 22.832C20.1719 22.944 20.0065 23 19.8086 23H19.0117L19.9453 20.3438H21.3555L20.9141 21.5938L22.1133 20.6094C22.4128 20.362 22.7487 20.2383 23.1211 20.2383C23.4284 20.2383 23.582 20.3568 23.582 20.5938C23.582 20.6615 23.5677 20.7357 23.5391 20.8164L23.2578 21.5938L24.4258 20.6016C24.7096 20.3594 25.0247 20.2383 25.3711 20.2383C25.6992 20.2383 25.8633 20.3776 25.8633 20.6562C25.8633 20.75 25.8424 20.8542 25.8008 20.9688L25.2969 22.375H26.8984ZM33.9609 20.3438C33.7891 20.7604 33.5013 20.9688 33.0977 20.9688H30.9883C30.8867 21.7135 30.5026 22.2617 29.8359 22.6133C29.3464 22.8711 28.7747 23 28.1211 23H27.4102C27.2826 23 27.1706 22.9688 27.0742 22.9062C26.9466 22.8229 26.8828 22.6966 26.8828 22.5273C26.8828 22.431 26.9036 22.3216 26.9453 22.1992L28.3398 18.2891H29.7461L28.2891 22.3672C28.849 22.3802 29.2474 22.1562 29.4844 21.6953C29.2422 21.5443 29.1211 21.3385 29.1211 21.0781C29.1211 20.875 29.1992 20.7018 29.3555 20.5586C29.5143 20.4154 29.7031 20.3438 29.9219 20.3438H33.9609ZM36.1445 22.375C36.1445 22.5573 36.0443 22.7109 35.8438 22.8359C35.6667 22.9453 35.4818 23 35.2891 23H33.793C33.3971 23 33.1992 22.8359 33.1992 22.5078C33.1992 22.4245 33.2161 22.3346 33.25 22.2383L33.6914 20.9688H32.8594L32.4258 22.0898C32.3529 22.2799 32.1953 22.375 31.9531 22.375H31.5391L32.0508 20.9688C31.8893 20.9323 31.7578 20.8516 31.6562 20.7266C31.5573 20.599 31.5078 20.4531 31.5078 20.2891C31.5078 19.9896 31.6471 19.7578 31.9258 19.5938C32.1576 19.4583 32.4336 19.3906 32.7539 19.3906H33.3867L33.0586 20.3438H35.2188L34.5078 22.375H36.1445ZM41.0586 22.375C41.0039 22.5755 40.8789 22.7331 40.6836 22.8477C40.5091 22.9492 40.3099 23 40.0859 23H37.9102C36.6445 23 36.0117 22.6185 36.0117 21.8555C36.0117 21.3659 36.2279 20.9818 36.6602 20.7031C37.0326 20.4635 37.4753 20.3438 37.9883 20.3438H38.5547C38.8854 20.3438 39.1758 20.3945 39.4258 20.4961C39.7591 20.6315 39.9336 20.8372 39.9492 21.1133C39.9622 21.3919 39.8281 21.6237 39.5469 21.8086H38.2539L38.6758 20.9688H37.8516L37.5312 21.9102C37.513 21.9648 37.5039 22.0143 37.5039 22.0586C37.5039 22.2695 37.6732 22.375 38.0117 22.375H41.0586Z" fill="#E2E2E2"/>
</svg>
