<svg width="49" height="47" viewBox="0 0 49 47" fill="none" xmlns="http://www.w3.org/2000/svg">
<path d="M0.221191 6.70629L24.5 0.146851L48.7789 6.70629V23.9639V40.4406L24.5 47L0.221191 40.4406V22.4021V6.70629Z" fill="#BD2D22"/>
<path d="M17.3359 19.3203C17.3359 19.5911 17.2279 19.8164 17.0117 19.9961C16.8086 20.1706 16.569 20.2578 16.293 20.2578C16.0143 20.2578 15.7773 20.1719 15.582 20L14.2852 23.6016C14.1628 23.9479 13.9505 24.1211 13.6484 24.1211C13.2422 24.1211 13.0013 23.9453 12.9258 23.5938L12.2773 20.5195L11.3984 23.1211C11.3073 23.3919 11.1328 23.6081 10.875 23.7695C10.6328 23.9232 10.3646 24 10.0703 24H8.21484C8.32943 23.7135 8.42708 23.5117 8.50781 23.3945C8.66146 23.168 8.84115 23.0547 9.04688 23.0547C9.17188 23.0547 9.36068 23.082 9.61328 23.1367C9.86849 23.1888 10.0612 23.2148 10.1914 23.2148C10.4648 23.2148 10.6589 23.0469 10.7734 22.7109L11.9766 19.2227C12.0781 18.9206 12.1654 18.7266 12.2383 18.6406C12.3607 18.4844 12.5534 18.4062 12.8164 18.4062C13.2096 18.4062 13.4622 18.6836 13.5742 19.2383L14.1094 21.9102L14.918 19.6406C15.2174 18.8021 15.6732 18.3828 16.2852 18.3828C16.5612 18.3828 16.8021 18.4688 17.0078 18.6406C17.2266 18.8229 17.3359 19.0495 17.3359 19.3203ZM21.0312 23.375C20.9766 23.5911 20.8568 23.7552 20.6719 23.8672C20.526 23.9557 20.3711 24 20.207 24H18.5742C18.1914 24 18 23.8776 18 23.6328C17.7969 23.8776 17.5221 24 17.1758 24H16.4883C16.2773 24 16.1133 23.9453 15.9961 23.8359C15.8867 23.7344 15.832 23.6003 15.832 23.4336C15.832 23.3398 15.8503 23.2435 15.8867 23.1445L16.543 21.3438H17.9609L17.2305 23.375H18.0234L18.75 21.3438H20.1523L19.4414 23.375H21.0312ZM19.5938 19.6641L18.3906 20.8711H17.8086L18.5195 19.6641H19.5938ZM28.6758 23.375C28.6003 23.7917 28.3047 24 27.7891 24H26.2031C26.0781 24 25.9622 23.9492 25.8555 23.8477C25.7513 23.7435 25.6992 23.6263 25.6992 23.4961C25.6992 23.4544 25.7044 23.4141 25.7148 23.375C25.7721 23.1823 25.8581 22.9023 25.9727 22.5352L24.6523 23.6406C24.319 23.9167 24.0339 24.0547 23.7969 24.0547C23.4427 24.0547 23.2656 23.9219 23.2656 23.6562C23.2656 23.5703 23.2852 23.4766 23.3242 23.375L23.6367 22.5352L22.082 23.832C21.9492 23.944 21.7839 24 21.5859 24H20.7891L21.7227 21.3438H23.1328L22.6914 22.5938L23.8906 21.6094C24.1901 21.362 24.526 21.2383 24.8984 21.2383C25.2057 21.2383 25.3594 21.3568 25.3594 21.5938C25.3594 21.6615 25.3451 21.7357 25.3164 21.8164L25.0352 22.5938L26.2031 21.6016C26.487 21.3594 26.8021 21.2383 27.1484 21.2383C27.4766 21.2383 27.6406 21.3776 27.6406 21.6562C27.6406 21.75 27.6198 21.8542 27.5781 21.9688L27.0742 23.375H28.6758ZM33.5781 23.375C33.5234 23.5755 33.3984 23.7331 33.2031 23.8477C33.0286 23.9492 32.8294 24 32.6055 24H30.4297C29.1641 24 28.5312 23.6185 28.5312 22.8555C28.5312 22.3659 28.7474 21.9818 29.1797 21.7031C29.5521 21.4635 29.9948 21.3438 30.5078 21.3438H31.0742C31.4049 21.3438 31.6953 21.3945 31.9453 21.4961C32.2786 21.6315 32.4531 21.8372 32.4688 22.1133C32.4818 22.3919 32.3477 22.6237 32.0664 22.8086H30.7734L31.1953 21.9688H30.3711L30.0508 22.9102C30.0326 22.9648 30.0234 23.0143 30.0234 23.0586C30.0234 23.2695 30.1927 23.375 30.5312 23.375H33.5781ZM38.1328 23.375C38.1328 23.5573 38.0326 23.7109 37.832 23.8359C37.6549 23.9453 37.4701 24 37.2773 24H35.7812C35.3854 24 35.1875 23.8359 35.1875 23.5078C35.1875 23.4245 35.2044 23.3346 35.2383 23.2383L35.6797 21.9688H34.8477L34.4141 23.0898C34.3411 23.2799 34.1836 23.375 33.9414 23.375H33.5273L34.0391 21.9688C33.8776 21.9323 33.7461 21.8516 33.6445 21.7266C33.5456 21.599 33.4961 21.4531 33.4961 21.2891C33.4961 20.9896 33.6354 20.7578 33.9141 20.5938C34.1458 20.4583 34.4219 20.3906 34.7422 20.3906H35.375L35.0469 21.3438H37.207L36.4961 23.375H38.1328ZM44.7852 21.3438C44.681 21.7604 44.3685 21.9688 43.8477 21.9688H41.4023C41.4883 22.026 41.5586 22.1315 41.6133 22.2852C41.668 22.4362 41.6901 22.5677 41.6797 22.6797C41.6432 23.1146 41.4518 23.4557 41.1055 23.7031C40.7747 23.9401 40.3451 24.0599 39.8164 24.0625C39.2018 24.0677 38.7292 23.9466 38.3984 23.6992C38.1042 23.4805 37.957 23.1927 37.957 22.8359C37.957 22.7656 37.9635 22.6953 37.9766 22.625C38.0443 22.2318 38.2396 21.9232 38.5625 21.6992C38.9062 21.4622 39.3646 21.3438 39.9375 21.3438H44.7852ZM40.5273 21.9688H39.6328L39.2812 22.9688C39.263 23.0208 39.2539 23.0703 39.2539 23.1172C39.2539 23.3411 39.4622 23.4531 39.8789 23.4531C39.9284 23.4531 39.9714 23.4518 40.0078 23.4492L40.5273 21.9688Z" fill="#E2E2E2"/>
</svg>
