<svg width="49" height="47" viewBox="0 0 49 47" fill="none" xmlns="http://www.w3.org/2000/svg">
<path d="M0.221191 6.70629L24.5 0.146851L48.7789 6.70629V23.9639V40.4406L24.5 47L0.221191 40.4406V22.4021V6.70629Z" fill="#6471E6"/>
<path d="M15.3359 19.3203C15.3359 19.5911 15.2279 19.8164 15.0117 19.9961C14.8086 20.1706 14.569 20.2578 14.293 20.2578C14.0143 20.2578 13.7773 20.1719 13.582 20L12.2852 23.6016C12.1628 23.9479 11.9505 24.1211 11.6484 24.1211C11.2422 24.1211 11.0013 23.9453 10.9258 23.5938L10.2773 20.5195L9.39844 23.1211C9.30729 23.3919 9.13281 23.6081 8.875 23.7695C8.63281 23.9232 8.36458 24 8.07031 24H6.21484C6.32943 23.7135 6.42708 23.5117 6.50781 23.3945C6.66146 23.168 6.84115 23.0547 7.04688 23.0547C7.17188 23.0547 7.36068 23.082 7.61328 23.1367C7.86849 23.1888 8.0612 23.2148 8.19141 23.2148C8.46484 23.2148 8.65885 23.0469 8.77344 22.7109L9.97656 19.2227C10.0781 18.9206 10.1654 18.7266 10.2383 18.6406C10.3607 18.4844 10.5534 18.4062 10.8164 18.4062C11.2096 18.4062 11.4622 18.6836 11.5742 19.2383L12.1094 21.9102L12.918 19.6406C13.2174 18.8021 13.6732 18.3828 14.2852 18.3828C14.5612 18.3828 14.8021 18.4688 15.0078 18.6406C15.2266 18.8229 15.3359 19.0495 15.3359 19.3203ZM19.0312 23.375C18.9766 23.5911 18.8568 23.7552 18.6719 23.8672C18.526 23.9557 18.3711 24 18.207 24H16.5742C16.1914 24 16 23.8776 16 23.6328C15.7969 23.8776 15.5221 24 15.1758 24H14.4883C14.2773 24 14.1133 23.9453 13.9961 23.8359C13.8867 23.7344 13.832 23.6003 13.832 23.4336C13.832 23.3398 13.8503 23.2435 13.8867 23.1445L14.543 21.3438H15.9609L15.2305 23.375H16.0234L16.75 21.3438H18.1523L17.4414 23.375H19.0312ZM17.5938 19.6641L16.3906 20.8711H15.8086L16.5195 19.6641H17.5938ZM26.6758 23.375C26.6003 23.7917 26.3047 24 25.7891 24H24.2031C24.0781 24 23.9622 23.9492 23.8555 23.8477C23.7513 23.7435 23.6992 23.6263 23.6992 23.4961C23.6992 23.4544 23.7044 23.4141 23.7148 23.375C23.7721 23.1823 23.8581 22.9023 23.9727 22.5352L22.6523 23.6406C22.319 23.9167 22.0339 24.0547 21.7969 24.0547C21.4427 24.0547 21.2656 23.9219 21.2656 23.6562C21.2656 23.5703 21.2852 23.4766 21.3242 23.375L21.6367 22.5352L20.082 23.832C19.9492 23.944 19.7839 24 19.5859 24H18.7891L19.7227 21.3438H21.1328L20.6914 22.5938L21.8906 21.6094C22.1901 21.362 22.526 21.2383 22.8984 21.2383C23.2057 21.2383 23.3594 21.3568 23.3594 21.5938C23.3594 21.6615 23.3451 21.7357 23.3164 21.8164L23.0352 22.5938L24.2031 21.6016C24.487 21.3594 24.8021 21.2383 25.1484 21.2383C25.4766 21.2383 25.6406 21.3776 25.6406 21.6562C25.6406 21.75 25.6198 21.8542 25.5781 21.9688L25.0742 23.375H26.6758ZM31.5781 23.375C31.5234 23.5755 31.3984 23.7331 31.2031 23.8477C31.0286 23.9492 30.8294 24 30.6055 24H28.4297C27.1641 24 26.5312 23.6185 26.5312 22.8555C26.5312 22.3659 26.7474 21.9818 27.1797 21.7031C27.5521 21.4635 27.9948 21.3438 28.5078 21.3438H29.0742C29.4049 21.3438 29.6953 21.3945 29.9453 21.4961C30.2786 21.6315 30.4531 21.8372 30.4688 22.1133C30.4818 22.3919 30.3477 22.6237 30.0664 22.8086H28.7734L29.1953 21.9688H28.3711L28.0508 22.9102C28.0326 22.9648 28.0234 23.0143 28.0234 23.0586C28.0234 23.2695 28.1927 23.375 28.5312 23.375H31.5781ZM36.1328 23.375C36.1328 23.5573 36.0326 23.7109 35.832 23.8359C35.6549 23.9453 35.4701 24 35.2773 24H33.7812C33.3854 24 33.1875 23.8359 33.1875 23.5078C33.1875 23.4245 33.2044 23.3346 33.2383 23.2383L33.6797 21.9688H32.8477L32.4141 23.0898C32.3411 23.2799 32.1836 23.375 31.9414 23.375H31.5273L32.0391 21.9688C31.8776 21.9323 31.7461 21.8516 31.6445 21.7266C31.5456 21.599 31.4961 21.4531 31.4961 21.2891C31.4961 20.9896 31.6354 20.7578 31.9141 20.5938C32.1458 20.4583 32.4219 20.3906 32.7422 20.3906H33.375L33.0469 21.3438H35.207L34.4961 23.375H36.1328ZM42.7852 21.3438C42.681 21.7604 42.3685 21.9688 41.8477 21.9688H39.4023C39.4883 22.026 39.5586 22.1315 39.6133 22.2852C39.668 22.4362 39.6901 22.5677 39.6797 22.6797C39.6432 23.1146 39.4518 23.4557 39.1055 23.7031C38.7747 23.9401 38.3451 24.0599 37.8164 24.0625C37.2018 24.0677 36.7292 23.9466 36.3984 23.6992C36.1042 23.4805 35.957 23.1927 35.957 22.8359C35.957 22.7656 35.9635 22.6953 35.9766 22.625C36.0443 22.2318 36.2396 21.9232 36.5625 21.6992C36.9062 21.4622 37.3646 21.3438 37.9375 21.3438H42.7852ZM38.5273 21.9688H37.6328L37.2812 22.9688C37.263 23.0208 37.2539 23.0703 37.2539 23.1172C37.2539 23.3411 37.4622 23.4531 37.8789 23.4531C37.9284 23.4531 37.9714 23.4518 38.0078 23.4492L38.5273 21.9688Z" fill="#E2E2E2"/>
</svg>
