<svg width="96" height="18" viewBox="0 0 96 18" fill="none" xmlns="http://www.w3.org/2000/svg">
<line x1="14.5" y1="17.5" x2="89.5" y2="17.5" stroke="#6471E6"/>
<path d="M0 1L75 1" stroke="#6471E6"/>
<path d="M62.5869 11.2188C62.4502 11.7396 61.9977 12 61.2295 12H59.4766C58.9297 12 58.6562 11.8421 58.6562 11.5264C58.6562 11.4157 58.6904 11.2708 58.7588 11.0918L59.5693 8.98242L57.1475 11.6387C56.887 11.9284 56.6022 12.0732 56.293 12.0732C56.2344 12.0732 56.1725 12.0684 56.1074 12.0586C55.7363 12.0163 55.5508 11.8307 55.5508 11.502C55.5508 11.375 55.5801 11.2383 55.6387 11.0918L56.8398 7.99121L53.8271 11.6289C53.6253 11.8763 53.3291 12 52.9385 12H51.9473L53.9199 6.36035H51.21L51.9473 5.12988H55.209C55.6582 5.12988 55.8828 5.29427 55.8828 5.62305C55.8828 5.75 55.8519 5.90299 55.79 6.08203L54.7402 9.10938L56.8398 6.73145C57.1068 6.42546 57.3118 6.22689 57.4551 6.13574C57.6927 5.986 58.0003 5.91113 58.3779 5.91113C58.4854 5.91113 58.5977 5.94857 58.7148 6.02344C58.8939 6.14062 58.9834 6.31478 58.9834 6.5459C58.9834 6.68913 58.9476 6.85026 58.876 7.0293L57.9287 9.49023L59.8086 7.60059C60.0755 7.33366 60.2529 7.17253 60.3408 7.11719C60.4938 7.0293 60.7135 6.98698 61 6.99023C61.1139 6.99023 61.2344 7.03255 61.3613 7.11719C61.5566 7.24414 61.6543 7.42969 61.6543 7.67383C61.6543 7.8138 61.6217 7.96842 61.5566 8.1377L60.3896 11.2188H62.5869ZM70.8877 8.67969C70.7575 9.20052 70.3669 9.46094 69.7158 9.46094H66.6592C66.7666 9.53255 66.8545 9.66439 66.9229 9.85645C66.9912 10.0452 67.0189 10.2096 67.0059 10.3496C66.9603 10.8932 66.721 11.3197 66.2881 11.6289C65.8747 11.9251 65.3376 12.0749 64.6768 12.0781C63.9085 12.0846 63.3177 11.9333 62.9043 11.624C62.5365 11.3506 62.3525 10.9909 62.3525 10.5449C62.3525 10.457 62.3607 10.3691 62.377 10.2812C62.4616 9.78971 62.7057 9.40397 63.1094 9.12402C63.5391 8.8278 64.112 8.67969 64.8281 8.67969H70.8877ZM65.5654 9.46094H64.4473L64.0078 10.7109C63.985 10.776 63.9736 10.8379 63.9736 10.8965C63.9736 11.1764 64.234 11.3164 64.7549 11.3164C64.8167 11.3164 64.8704 11.3148 64.916 11.3115L65.5654 9.46094ZM74.916 11.2188C74.7533 11.7396 74.3545 12 73.7197 12H71.8594C71.3223 12 71.0586 11.8307 71.0684 11.4922C70.7103 11.9121 70.2301 12.1221 69.6279 12.1221C69.234 12.1221 68.915 12.0114 68.6709 11.79C68.417 11.5622 68.29 11.2529 68.29 10.8623C68.29 10.1559 68.5765 9.60254 69.1494 9.20215C69.654 8.85384 70.2741 8.67969 71.0098 8.67969H72.0254L72.9385 6.10156H74.7158L72.8994 11.2188H74.916ZM71.7568 9.46094H70.5166L70.1455 10.5107C70.113 10.6084 70.0967 10.6963 70.0967 10.7744C70.0967 10.9925 70.235 11.1309 70.5117 11.1895C70.6094 11.209 70.8177 11.2188 71.1367 11.2188L71.7568 9.46094ZM83.2119 8.67969C83.0817 9.20052 82.6911 9.46094 82.04 9.46094H78.9834C79.0908 9.53255 79.1787 9.66439 79.2471 9.85645C79.3154 10.0452 79.3431 10.2096 79.3301 10.3496C79.2845 10.8932 79.0452 11.3197 78.6123 11.6289C78.1989 11.9251 77.6618 12.0749 77.001 12.0781C76.2327 12.0846 75.6419 11.9333 75.2285 11.624C74.8607 11.3506 74.6768 10.9909 74.6768 10.5449C74.6768 10.457 74.6849 10.3691 74.7012 10.2812C74.7858 9.78971 75.0299 9.40397 75.4336 9.12402C75.8633 8.8278 76.4362 8.67969 77.1523 8.67969H83.2119ZM77.8896 9.46094H76.7715L76.332 10.7109C76.3092 10.776 76.2979 10.8379 76.2979 10.8965C76.2979 11.1764 76.5583 11.3164 77.0791 11.3164C77.141 11.3164 77.1947 11.3148 77.2402 11.3115L77.8896 9.46094Z" fill="#D8D8D8"/>
</svg>
