<svg width="96" height="18" viewBox="0 0 96 18" fill="none" xmlns="http://www.w3.org/2000/svg">
<line x1="15" y1="17.5" x2="90" y2="17.5" stroke="#BD2D22"/>
<path d="M0.5 1L75.5 1" stroke="#BD2D22"/>
<path d="M59.5869 11.2188C59.4502 11.7396 58.9977 12 58.2295 12H56.4766C55.9297 12 55.6562 11.8421 55.6562 11.5264C55.6562 11.4157 55.6904 11.2708 55.7588 11.0918L56.5693 8.98242L54.1475 11.6387C53.887 11.9284 53.6022 12.0732 53.293 12.0732C53.2344 12.0732 53.1725 12.0684 53.1074 12.0586C52.7363 12.0163 52.5508 11.8307 52.5508 11.502C52.5508 11.375 52.5801 11.2383 52.6387 11.0918L53.8398 7.99121L50.8271 11.6289C50.6253 11.8763 50.3291 12 49.9385 12H48.9473L50.9199 6.36035H48.21L48.9473 5.12988H52.209C52.6582 5.12988 52.8828 5.29427 52.8828 5.62305C52.8828 5.75 52.8519 5.90299 52.79 6.08203L51.7402 9.10938L53.8398 6.73145C54.1068 6.42546 54.3118 6.22689 54.4551 6.13574C54.6927 5.986 55.0003 5.91113 55.3779 5.91113C55.4854 5.91113 55.5977 5.94857 55.7148 6.02344C55.8939 6.14062 55.9834 6.31478 55.9834 6.5459C55.9834 6.68913 55.9476 6.85026 55.876 7.0293L54.9287 9.49023L56.8086 7.60059C57.0755 7.33366 57.2529 7.17253 57.3408 7.11719C57.4938 7.0293 57.7135 6.98698 58 6.99023C58.1139 6.99023 58.2344 7.03255 58.3613 7.11719C58.5566 7.24414 58.6543 7.42969 58.6543 7.67383C58.6543 7.8138 58.6217 7.96842 58.5566 8.1377L57.3896 11.2188H59.5869ZM67.8877 8.67969C67.7575 9.20052 67.3669 9.46094 66.7158 9.46094H63.6592C63.7666 9.53255 63.8545 9.66439 63.9229 9.85645C63.9912 10.0452 64.0189 10.2096 64.0059 10.3496C63.9603 10.8932 63.721 11.3197 63.2881 11.6289C62.8747 11.9251 62.3376 12.0749 61.6768 12.0781C60.9085 12.0846 60.3177 11.9333 59.9043 11.624C59.5365 11.3506 59.3525 10.9909 59.3525 10.5449C59.3525 10.457 59.3607 10.3691 59.377 10.2812C59.4616 9.78971 59.7057 9.40397 60.1094 9.12402C60.5391 8.8278 61.112 8.67969 61.8281 8.67969H67.8877ZM62.5654 9.46094H61.4473L61.0078 10.7109C60.985 10.776 60.9736 10.8379 60.9736 10.8965C60.9736 11.1764 61.234 11.3164 61.7549 11.3164C61.8167 11.3164 61.8704 11.3148 61.916 11.3115L62.5654 9.46094ZM71.916 11.2188C71.7533 11.7396 71.3545 12 70.7197 12H68.8594C68.3223 12 68.0586 11.8307 68.0684 11.4922C67.7103 11.9121 67.2301 12.1221 66.6279 12.1221C66.234 12.1221 65.915 12.0114 65.6709 11.79C65.417 11.5622 65.29 11.2529 65.29 10.8623C65.29 10.1559 65.5765 9.60254 66.1494 9.20215C66.654 8.85384 67.2741 8.67969 68.0098 8.67969H69.0254L69.9385 6.10156H71.7158L69.8994 11.2188H71.916ZM68.7568 9.46094H67.5166L67.1455 10.5107C67.113 10.6084 67.0967 10.6963 67.0967 10.7744C67.0967 10.9925 67.235 11.1309 67.5117 11.1895C67.6094 11.209 67.8177 11.2188 68.1367 11.2188L68.7568 9.46094ZM80.2119 8.67969C80.0817 9.20052 79.6911 9.46094 79.04 9.46094H75.9834C76.0908 9.53255 76.1787 9.66439 76.2471 9.85645C76.3154 10.0452 76.3431 10.2096 76.3301 10.3496C76.2845 10.8932 76.0452 11.3197 75.6123 11.6289C75.1989 11.9251 74.6618 12.0749 74.001 12.0781C73.2327 12.0846 72.6419 11.9333 72.2285 11.624C71.8607 11.3506 71.6768 10.9909 71.6768 10.5449C71.6768 10.457 71.6849 10.3691 71.7012 10.2812C71.7858 9.78971 72.0299 9.40397 72.4336 9.12402C72.8633 8.8278 73.4362 8.67969 74.1523 8.67969H80.2119ZM74.8896 9.46094H73.7715L73.332 10.7109C73.3092 10.776 73.2979 10.8379 73.2979 10.8965C73.2979 11.1764 73.5583 11.3164 74.0791 11.3164C74.141 11.3164 74.1947 11.3148 74.2402 11.3115L74.8896 9.46094Z" fill="#4D4C4C"/>
</svg>
