<svg width="150" height="48" viewBox="0 0 150 48" fill="none" xmlns="http://www.w3.org/2000/svg">
<path d="M67.0879 12.7783C67.0879 13.3936 66.8447 13.9121 66.3584 14.334C65.8955 14.7324 65.3535 14.9316 64.7324 14.9316C64.1055 14.9316 63.5576 14.7324 63.0889 14.334C62.6025 13.9121 62.3594 13.3936 62.3594 12.7783C62.3594 12.5732 62.3828 12.3975 62.4297 12.251C61.1758 12.2627 60.0361 12.9131 59.0107 14.2021C58.0498 15.4209 57.5693 16.6748 57.5693 17.9639C57.5693 20.3838 59.1484 21.5938 62.3066 21.5938H66.7275C66.5459 22.5312 65.834 23 64.5918 23H61.3486C59.3271 23 57.6865 22.707 56.4268 22.1211C54.6982 21.3125 53.8428 19.9971 53.8604 18.1748C53.8721 17.1553 54.1855 16.1357 54.8008 15.1162C55.6387 13.7217 56.8281 12.6201 58.3691 11.8115C59.8633 11.0264 61.4512 10.6338 63.1328 10.6338H64.8906C65.459 10.6338 65.9658 10.8506 66.4111 11.2842C66.8623 11.7178 67.0879 12.2158 67.0879 12.7783ZM78.0303 21.5938C77.749 22.5312 77.0312 23 75.877 23H72.5459C71.5967 23 71.1221 22.6953 71.1221 22.0859C70.4834 22.8125 69.6982 23.1758 68.7666 23.1758C68.0811 23.1758 67.5244 22.9648 67.0967 22.543C66.6689 22.1211 66.4551 21.5703 66.4551 20.8906C66.4551 19.666 66.9238 18.6992 67.8613 17.9902C68.7109 17.3457 69.7627 17.0234 71.0166 17.0234H76.0352L74.3828 21.5938H78.0303ZM72.3613 18.4297H70.4189L69.8037 20.4775C69.7686 20.6064 69.751 20.7236 69.751 20.8291C69.751 21.3389 70.249 21.5938 71.2451 21.5938L72.3613 18.4297ZM88.3047 21.5938C88.3047 22.0039 88.0791 22.3496 87.6279 22.6309C87.2295 22.877 86.8135 23 86.3799 23H83.0137C82.123 23 81.6777 22.6309 81.6777 21.8926C81.6777 21.7051 81.7158 21.5029 81.792 21.2861L82.7852 18.4297H80.9131L79.9375 20.9521C79.7734 21.3799 79.4189 21.5938 78.874 21.5938H77.9424L79.0938 18.4297C78.7305 18.3477 78.4346 18.166 78.2061 17.8848C77.9834 17.5977 77.8721 17.2695 77.8721 16.9004C77.8721 16.2266 78.1855 15.7051 78.8125 15.3359C79.334 15.0312 79.9551 14.8789 80.6758 14.8789H82.0996L81.3613 17.0234H86.2217L84.6221 21.5938H88.3047ZM98.9307 21.5938C98.9072 21.9863 98.6816 22.3203 98.2539 22.5957C97.832 22.8652 97.3691 23 96.8652 23H90.1855C88.9023 23 88.2607 22.6074 88.2607 21.8223C88.2607 21.752 88.2666 21.6758 88.2783 21.5938C88.3252 21.2422 88.5127 20.9697 88.8408 20.7764C89.1221 20.6064 89.4443 20.5244 89.8076 20.5303C90.4404 20.5479 91.2988 20.8965 92.3828 21.5762C92.6934 21.1895 92.8486 20.7969 92.8486 20.3984C92.8486 20.1992 92.7227 19.7451 92.4707 19.0361L91.4775 19.9414H89.7197L92.0576 17.7793C91.9521 17.5977 91.8789 17.4482 91.8379 17.3311C91.7617 17.1143 91.7207 16.8682 91.7148 16.5928L93.877 14.29C94.8496 14.4541 95.3359 14.8965 95.3359 15.6172C95.3359 16.0391 95.21 16.4287 94.958 16.7861C95.1748 17.3604 95.3945 17.9346 95.6172 18.5088C95.8867 19.2471 96.0215 19.8447 96.0215 20.3018C96.0215 20.8057 95.8223 21.2363 95.4238 21.5938H98.9307Z" fill="#DBDBDB"/>
<path fill-rule="evenodd" clip-rule="evenodd" d="M45 18H10C4.47715 18 0 22.4772 0 28V38C0 43.5228 4.47715 48 10 48H140C145.523 48 150 43.5228 150 38V28C150 22.4772 145.523 18 140 18H105V19C105 24.5228 100.523 29 95 29H55C49.4772 29 45 24.5228 45 19V18Z" fill="#6471E6"/>
</svg>
