<svg width="43" height="12" viewBox="0 0 43 12" fill="none" xmlns="http://www.w3.org/2000/svg">
<path d="M7.29834 0.204102H10.543V11H8.44092V3.69775C8.44092 3.48779 8.44336 3.19482 8.44824 2.81885C8.45312 2.43799 8.45557 2.14502 8.45557 1.93994L6.41211 11H4.22217L2.19336 1.93994C2.19336 2.14502 2.1958 2.43799 2.20068 2.81885C2.20557 3.19482 2.20801 3.48779 2.20801 3.69775V11H0.105957V0.204102H3.38721L5.3501 8.69287L7.29834 0.204102ZM20.6211 2.11572H14.9082V4.4082H20.1523V6.2832H14.9082V9.05908H20.8848V11H12.7036V0.204102H20.6211V2.11572ZM22.606 0.204102H24.9717L29.271 7.74072V0.204102H31.373V11H29.1172L24.708 3.33154V11H22.606V0.204102ZM33.4824 0.204102H35.7749V6.83984C35.7749 7.58203 35.8628 8.12402 36.0386 8.46582C36.312 9.07129 36.9077 9.37402 37.8257 9.37402C38.7388 9.37402 39.332 9.07129 39.6055 8.46582C39.7812 8.12402 39.8691 7.58203 39.8691 6.83984V0.204102H42.1616V6.83984C42.1616 7.9873 41.9834 8.88086 41.627 9.52051C40.9629 10.6924 39.6958 11.2783 37.8257 11.2783C35.9556 11.2783 34.686 10.6924 34.0171 9.52051C33.6606 8.88086 33.4824 7.9873 33.4824 6.83984V0.204102Z" fill="#AAADB2"/>
</svg>
