<svg xmlns="http://www.w3.org/2000/svg" viewBox="0 0 762 762" fill="none" shape-rendering="auto"><metadata xmlns:rdf="http://www.w3.org/1999/02/22-rdf-syntax-ns#" xmlns:xsi="http://www.w3.org/2001/XMLSchema-instance" xmlns:dc="http://purl.org/dc/elements/1.1/" xmlns:dcterms="http://purl.org/dc/terms/"><rdf:RDF><rdf:Description><dc:title>Adventurer</dc:title><dc:creator>Lisa Wischofsky</dc:creator><dc:source xsi:type="dcterms:URI">https://www.figma.com/community/file/1184595184137881796</dc:source><dcterms:license xsi:type="dcterms:URI">https://creativecommons.org/licenses/by/4.0/</dcterms:license><dc:rights>Remix of „Adventurer” (https://www.figma.com/community/file/1184595184137881796) by „Lisa Wischofsky”, licensed under „CC BY 4.0” (https://creativecommons.org/licenses/by/4.0/)</dc:rights></rdf:Description></rdf:RDF></metadata><mask id="viewboxMask"><rect width="762" height="762" rx="0" ry="0" x="0" y="0" fill="#fff" /></mask><g mask="url(#viewboxMask)"><path d="M396 164.8a224.8 224.8 0 0 1 104.8 42.4c6.2 4.9 12.5 9.4 18 15a225.4 225.4 0 0 1 71.8 149 58.5 58.5 0 0 1 50.9 42.2 71 71 0 0 1-27.6 76.5c-11 7.7-24.5 12-38 11.7-5 0-10-1.6-15-1.8-1.9 2.2-3.3 4.9-4.8 7.3A223.3 223.3 0 0 1 389 609.8c-11 .7-21.9 2-33 .7a223.7 223.7 0 0 1-178.8-342.3A223.4 223.4 0 0 1 352 163.5c14.6-1.4 29.4-.3 44 1.3Z" fill="#000"/><path fill-rule="evenodd" clip-rule="evenodd" d="M498.8 213.2A216 216 0 0 0 363 169c-13-.2-26.2 1.6-39 4a218 218 0 0 0-113.6 365.5 218.5 218.5 0 0 0 260.4 40.2c35-18.8 64.2-47.3 84.4-81.5l-3-1.6c-2.8-1.4-5.7-3-8-5-2.2-2-.3-5.8 2.7-4.7 1.5.7 3 1.6 4.4 2.4a55 55 0 0 0 59.6-3.6 64.5 64.5 0 0 0 25-69.8 53.1 53.1 0 0 0-24-31 52.6 52.6 0 0 0-47-2.8c-1.6.8-3.4 1.5-5 1.3-2.5-.2-2.8-4.2-.6-5.2 8-4 16.5-5.6 25.4-6.4a217 217 0 0 0-72-146.4c-4.4-4-8.7-8.1-13.9-11.3Zm107.6 196.2c2-1.2 1.3-5.1-1.4-5-2 0-4.2.8-6.2 1.6l-1.4.4a95.1 95.1 0 0 0-25.5 12.4c-2.2 2-2.2 4.4.1 6.2a92 92 0 0 0 5.2 2.8 36 36 0 0 1 13 9.2c-.2 1.9-2 3.4-3.4 4.5l-.2.2c-3.9 3-8.8 5-13.6 7-2.5 1-4.9 2-7.1 3.1-1.7.8-2.6 2.2-1.6 3.9 1 2 3.2 1.1 5 .5l.6-.2 5.4-2.3c5.4-2.3 11-4.5 15.4-8 2.7-2.1 5.1-5.1 5.4-8.7-.5-3.4-2.7-5.7-5.3-7.8a83 83 0 0 0-11.6-7.2l-1.1-.6c5.4-3 10.8-5.6 16.6-7.7l5-1.7a52 52 0 0 0 6.7-2.6Z" fill="#763900"/><g transform="translate(-161 -83)"><path d="M619.4 468.6c3.8 2.6 8 5.3 11.1 8.9.3 1.6.1 3.4 0 5-1.9.7-3.3 1.1-5.3.3a142.2 142.2 0 0 0-91.4 0c-12.5 4.2-25 10.3-35.2 18.8-1.4 1-4 2.9-5.3 1.1-1.8-1.6-.7-3.5.1-5.2a80.6 80.6 0 0 1 30.7-30.4 94.1 94.1 0 0 1 95.3 1.5ZM405.5 480.4a56.6 56.6 0 0 1 31.2 18c2.8 3.8 6.5 8 5.9 13.1-1.6 0-3.3.7-4.6-.5a50.8 50.8 0 0 0-13.9-8 99.8 99.8 0 0 0-48.6-5.1 75 75 0 0 0-36 13.7c-1.9 1.2-3.1 2.8-5.6 1.8-1.2-1.9-1-4.5.3-6.2 16-21.8 45-31.8 71.3-26.8Z" fill="#000"/></g><g transform="translate(-161 -83)"><path d="M531 352.3a85.8 85.8 0 0 1 60.6 15.1 82.9 82.9 0 0 1 29 33c1 3-.4 3.8-2.6 5.3-4-2.2-6.9-5.6-10.5-8.3-13-9.7-28-16.3-43.7-20.2-15-3.5-30.6-5-45.8-2.8-4.8.4-9.3 2-14 2.7-2.4.2-5.1-1.2-4.2-4 1.9-4.2 4.2-8.6 7.6-11.7a45 45 0 0 1 23.6-9ZM383 428.8c13.4-.8 26.3-.6 39 4.3 5.9 2.3 11.6 5.9 14 12a14 14 0 0 1-1.8 12.6c-4.9-.7-9.4-2.6-14.1-3.8a203 203 0 0 0-71-6c-5 .4-10 2-14.8 1.8-1.8-.5-1.2-2.2-1-3.5.9-2.5 3.6-3.9 5.8-5.1a119.2 119.2 0 0 1 43.9-12.3Z" fill="#000"/></g><g transform="translate(-161 -83)"><path d="M534.3 562.6c8 1.1 15.4 4.3 21.2 9.9a39 39 0 0 1 11.9 29.5c.3 9.8-2.4 19.1-6.7 27.8a82.5 82.5 0 0 1-70.7 45.3 107.2 107.2 0 0 1-82-34 46.4 46.4 0 0 1-11.6-29.1c0-7.9 4-15.6 10.5-20.2A42 42 0 0 1 430 585c14.2.2 27.8 4.4 40.2 11.2a79.6 79.6 0 0 1 34-29c9.4-4.2 19.8-6 30-4.6Z" fill="#000"/><path d="M533.5 568.3c9.2 1.3 18 6.3 22.9 14.3 6 9.6 6.6 21 3.8 31.8-4-.5-8-.7-12-.2-10.8.6-21.7 3.4-32 7a42.9 42.9 0 0 0-.5-23.9c-1.7-3.8-5.4-6.2-9.6-4.3-6.6 3.1-10.3 11.9-13 18.2-4.8-1.6-11.3-3.8-16-1.2-4 2.2-3.9 6.5-2.5 10.2 2.6 6.3 7.7 11.1 12.6 15.5a114 114 0 0 0-31.1 29c-15-4.7-28.7-13-40-23.7a45.7 45.7 0 0 1-13.7-24.4c-1-6.4.7-13.2 5.4-17.8 4.4-4.6 11-6.7 17.2-7.5a69.3 69.3 0 0 1 35.2 6.5c3.8 1.5 7.1 3.8 10.8 5.4 2.7.3 3.7-3.4 5-5.2a70 70 0 0 1 38.7-28.3c6-1.8 12.6-1.9 18.8-1.4Z" fill="#8F2E45"/><path d="M509 597.9c2.6 2.3 2.7 6.8 2.9 10-.1 11-3.2 22-8 31.7a54 54 0 0 1-23.3-20.2c-1-1.4-1-3-1.2-4.6 5.2-.7 9.2 1 13.8 2.9 2.8 1 3.9-1.4 5-3.5 2.4-5.5 5.1-13.3 10.8-16.3Z" fill="#D32020"/><path d="M558.6 620a70.8 70.8 0 0 1-11 19.6c-3.8 4.8-8.5 8.9-13 13a77 77 0 0 1-35.1 15.6c-12.5 2-25.2 1.2-37.5-1.6 8-11.1 18.6-19.9 30.3-27.1 3.7 2.3 7.6 5.1 11.7 6.6 1.4.6 2.8-.4 3.6-1.5 3.2-4.9 4.9-10 6.8-15.4.4-1.4 1.6-1.6 2.8-2.1 13-4.7 27.5-8.1 41.4-7.2Z" fill="#EA869E"/></g><g transform="translate(-161 -83)"></g><g transform="translate(-161 -83)"></g><g transform="translate(-161 -83)"><g fill="#000"><path d="M546 236.8a220 220 0 0 1 141.8 52.3 189.7 189.7 0 0 1 60.4 97.9c5.5 21.9 6.6 44.4 4.3 66.8-.4 1.8-.5 5.6-3 5.6-4.2.2-8.5 0-12.7 1.2a64.9 64.9 0 0 0-31.2 17c-1 1-2 2.2-3.6 1.8-1.6 0-2.3-2-2.1-3.4.3-3 1.5-6 2.1-9 1.6-6.7 1.9-13.2 2.5-20 .6-6.8-.3-13.3-.9-20-.4-3.8-1.2-7.3-2-11a54.2 54.2 0 0 1-26.5-7c-15.8-9-27.3-25-35.5-40.8-9.8-19-16-40-20.2-60.8a441.8 441.8 0 0 1-91.2 25.9 561.7 561.7 0 0 1-101.2 9 386 386 0 0 1-71.2-6c-2-.4-3.5-1.1-3.6-3.3 1-3.8 4-7.3 6.5-10.3 9-11 19-21 29.9-30.1A242 242 0 0 1 546 236.8Z"/><path d="M718.6 474.6c0 1 .3 2.7-.5 3.5-2.2 2.4-5.1 4.2-7.6 6.4-2.6 2.2-4.8 4.9-7.5 6.9-2.7.5-4-2-2.7-4.1 2.7-3.8 6.7-6.8 10.2-9.8 2.7-2 4.5-4.7 8-3Z"/></g><path d="M520.2 243.8c41.3-4.2 83.5 2.8 120.8 21.2a194.1 194.1 0 0 1 79.2 70.7 181 181 0 0 1 26.4 118 68 68 0 0 0-38.6 14c2.8-16.5 3.5-33.4 0-49.8-.7-2.4-1.2-5.3-2.8-7.1-1.6-1.2-4.3-.8-6.2-1-8 .2-16-2.8-22.9-7a87.5 87.5 0 0 1-27.6-30.3 211 211 0 0 1-22.2-60.5c-.8-3.3-1.1-6.8-2.3-10-.9-1.4-2.4-1.8-4-1.2-3.6 1.3-7.1 3-10.7 4.3a443.8 443.8 0 0 1-82.3 22.5 588.4 588.4 0 0 1-81 8.7c-14.6.2-29.4.4-44-.4-14.3-1-28.4-2.4-42.5-4.8a232.8 232.8 0 0 1 160.7-87.3Z" fill="#796a45"/></g><g transform="translate(-161 -83)"></g></g></svg>