<svg xmlns="http://www.w3.org/2000/svg" viewBox="0 0 762 762" fill="none" shape-rendering="auto"><metadata xmlns:rdf="http://www.w3.org/1999/02/22-rdf-syntax-ns#" xmlns:xsi="http://www.w3.org/2001/XMLSchema-instance" xmlns:dc="http://purl.org/dc/elements/1.1/" xmlns:dcterms="http://purl.org/dc/terms/"><rdf:RDF><rdf:Description><dc:title>Adventurer</dc:title><dc:creator>Lisa Wischofsky</dc:creator><dc:source xsi:type="dcterms:URI">https://www.figma.com/community/file/1184595184137881796</dc:source><dcterms:license xsi:type="dcterms:URI">https://creativecommons.org/licenses/by/4.0/</dcterms:license><dc:rights>Remix of „Adventurer” (https://www.figma.com/community/file/1184595184137881796) by „Lisa Wischofsky”, licensed under „CC BY 4.0” (https://creativecommons.org/licenses/by/4.0/)</dc:rights></rdf:Description></rdf:RDF></metadata><mask id="viewboxMask"><rect width="762" height="762" rx="0" ry="0" x="0" y="0" fill="#fff" /></mask><g mask="url(#viewboxMask)"><path d="M396 164.8a224.8 224.8 0 0 1 104.8 42.4c6.2 4.9 12.5 9.4 18 15a225.4 225.4 0 0 1 71.8 149 58.5 58.5 0 0 1 50.9 42.2 71 71 0 0 1-27.6 76.5c-11 7.7-24.5 12-38 11.7-5 0-10-1.6-15-1.8-1.9 2.2-3.3 4.9-4.8 7.3A223.3 223.3 0 0 1 389 609.8c-11 .7-21.9 2-33 .7a223.7 223.7 0 0 1-178.8-342.3A223.4 223.4 0 0 1 352 163.5c14.6-1.4 29.4-.3 44 1.3Z" fill="#000"/><path fill-rule="evenodd" clip-rule="evenodd" d="M498.8 213.2A216 216 0 0 0 363 169c-13-.2-26.2 1.6-39 4a218 218 0 0 0-113.6 365.5 218.5 218.5 0 0 0 260.4 40.2c35-18.8 64.2-47.3 84.4-81.5l-3-1.6c-2.8-1.4-5.7-3-8-5-2.2-2-.3-5.8 2.7-4.7 1.5.7 3 1.6 4.4 2.4a55 55 0 0 0 59.6-3.6 64.5 64.5 0 0 0 25-69.8 53.1 53.1 0 0 0-24-31 52.6 52.6 0 0 0-47-2.8c-1.6.8-3.4 1.5-5 1.3-2.5-.2-2.8-4.2-.6-5.2 8-4 16.5-5.6 25.4-6.4a217 217 0 0 0-72-146.4c-4.4-4-8.7-8.1-13.9-11.3Zm107.6 196.2c2-1.2 1.3-5.1-1.4-5-2 0-4.2.8-6.2 1.6l-1.4.4a95.1 95.1 0 0 0-25.5 12.4c-2.2 2-2.2 4.4.1 6.2a92 92 0 0 0 5.2 2.8 36 36 0 0 1 13 9.2c-.2 1.9-2 3.4-3.4 4.5l-.2.2c-3.9 3-8.8 5-13.6 7-2.5 1-4.9 2-7.1 3.1-1.7.8-2.6 2.2-1.6 3.9 1 2 3.2 1.1 5 .5l.6-.2 5.4-2.3c5.4-2.3 11-4.5 15.4-8 2.7-2.1 5.1-5.1 5.4-8.7-.5-3.4-2.7-5.7-5.3-7.8a83 83 0 0 0-11.6-7.2l-1.1-.6c5.4-3 10.8-5.6 16.6-7.7l5-1.7a52 52 0 0 0 6.7-2.6Z" fill="#9e5622"/><g transform="translate(-161 -83)"><path d="M506 461.1c5.5-1.1 11.7 2.5 17 4 22.1 7 45.9 9.5 69 7.7 6.2-.6 12.8-2.4 19-2 6.2.7 10.4 6.1 11 12a65.6 65.6 0 0 1-35.5 64.6 65.4 65.4 0 0 1-92.4-76.2c1.4-5.3 6.8-9 12-10ZM428.2 466.8c3.7 2.2 5.9 6.6 7.8 10.2a55.3 55.3 0 0 1-40.8 79.1 55 55 0 0 1-62.5-45c-.5-3.8-1.5-7.7.2-11.2 1.6-4.2 5.7-7.1 10.1-7.6a123.8 123.8 0 0 0 65.1-24.1 16.5 16.5 0 0 1 20.1-1.4Z" fill="#000"/><path d="M513.4 467.6c12.2 5 25.5 8 38.6 9.8 15.6 2 31.4 2.6 47 .3 3.9-.6 8.1-1.8 12-1.6 2.4.1 4.4 2.7 4.8 5a59.2 59.2 0 0 1-37 63.5 59.6 59.6 0 0 1-79.4-70.2c1.6-6.2 8-10 14-6.8ZM427.8 474.2c4.8 7 7.5 15.3 8.4 23.8a49.8 49.8 0 0 1-50.2 53.2 49.2 49.2 0 0 1-48.2-46.2c-.5-3.2 2.1-6.5 5.2-7 3.3-.6 6.7-.8 10-1.2 18.4-2.2 36.5-9.6 52.1-19.7 3.1-1.9 5.9-4.3 9-6.1 4.4-2.3 11-1.2 13.7 3.2Z" fill="#fff"/><path d="M533.5 497a22.1 22.1 0 0 1 24.1 21c.9 11-7.5 21.2-18.4 22.8-12 2.2-24-6.8-25.4-18.8-2-12.3 7.5-24 19.7-25ZM400.5 505.5c6-1.3 12.6.9 17 5a19.5 19.5 0 1 1-17-5Z" fill="#000"/></g><g transform="translate(-161 -83)"><path d="M531 353.9c17 2 34 7.4 48.6 16.5a57 57 0 0 1 18.3 16.9c.9 1.2 1.2 3.5-.2 4.3-1.2 1.2-2.9.5-4.2 0a143 143 0 0 0-54-15c-13.4-.9-28.2-1-41 3.8-3 1-5.6 3-8.5 3.8-1.4.3-2.5-1-3-2.2a18 18 0 0 1 .3-14.8 23 23 0 0 1 13.3-10.7A72.5 72.5 0 0 1 531 354ZM414 408c8.2 2.4 14.6 10.9 13.6 19.5-1.9.6-3.6 1-5.6.7a108 108 0 0 0-42.8 5.9c-14 4.7-28.5 11.6-39.4 21.8-1.4 1.3-4.3 3-5.6.7-1.7-2.3 0-4 1.4-6a128 128 0 0 1 49-39c8.8-3.6 20-6.5 29.4-3.5Z" fill="#000"/></g><g transform="translate(-161 -83)"><path d="M550 573.5c1.5 0 3.5-.3 4.6.9 1.8 1.5.8 4.5-1.6 4.7-5.3.8-10.7.6-16 1.3l-14.6 2c3 6.4 5 13.3 6 20.4 1.2 9.5.6 18.9-4.4 27.2a28 28 0 0 1-19 13.2 46.5 46.5 0 0 1-27-4.2 87.8 87.8 0 0 1-32.6-27.3 118 118 0 0 0-18.5 16.2c-1.5 1.6-3.5 4-5.7 1.9-1.9-1.7-.3-4 1-5.5a129 129 0 0 1 34.7-26.4 225 225 0 0 1 93.1-24.4Z" fill="#000"/><path d="M516.9 583.4c1.1 4 2.8 7.7 4 11.6 2 7 2.5 14.3 1.7 21.5a24.8 24.8 0 0 1-11 18c-7.5 4.5-16.7 4-24.7 1.5-15-4.8-27-15.2-36.5-27.5 9.3-5.9 19-10.7 29.3-14.6 1.7 2.4 3.3 5.1 5.4 7.1 1.4 1.5 4.5.1 4.1-2-.4-2.4-2.8-4.4-3.8-6.6-.1-.4.1-.7.7-.9 10-3.5 20.4-6 30.8-8.1Z" fill="#EA869E"/></g><g transform="translate(-161 -83)"></g><g transform="translate(-161 -83)"></g><g transform="translate(-161 -83)"><path d="M464 199.3c14.7-1 29.4 2.8 42.6 9.1a66.2 66.2 0 0 1 33.3 32.7c1 2.6 1.2 5-.7 7.1-1.5.7-3.5.6-5 1-3 1-5.3 3.4-6.5 6.3-2.8 6.3-3.9 13.4-6.1 20-2.2 7-5.2 13.5-10.2 19A98.5 98.5 0 0 1 462 323a84.4 84.4 0 0 1-45-1c-7.7-2.3-14.1-7.4-18.4-14.1-.8-1.3-.2-3.5 1.6-3.6 4.5-.4 8.8-.5 13-2.4 5.8-2.3 9-7.8 10-13.8 1.1-8.4-.5-15.9-1.4-24.2a95.3 95.3 0 0 1-.4-32.2c1.6-7.5 5.1-14.4 10.7-19.7a49.6 49.6 0 0 1 31.9-12.8Z" fill="#000"/><path d="M462 205.2c13.3-1.4 27.3 2 39.5 7.3 14.3 6.6 27 16 33.6 30.7a17.1 17.1 0 0 0-12.5 10.3c-4.3 9.9-5.4 21.1-11.1 31a62.5 62.5 0 0 1-16.3 16.7 92.4 92.4 0 0 1-60.7 18.5c-9.8-1.2-20-2.6-27.1-10a39 39 0 0 0 10.7-3.6c5.9-3.5 9.7-9.6 10.8-16.3 1.4-11.9-1.1-22.2-2.2-33.8-.8-5.2-.6-10.7-.5-16 .5-8.6 3.3-17.2 9.5-23.3a43 43 0 0 1 26.3-11.5Z" fill="#dba3be"/></g><g transform="translate(-161 -83)"></g></g></svg>